<mxfile host="app.diagrams.net" modified="2023-01-12T09:04:01.039Z" agent="5.0 (Windows NT 10.0; Win64; x64) AppleWebKit/537.36 (KHTML, like Gecko) Chrome/109.0.0.0 Safari/537.36" etag="s9YGgk8yaMgilWpNKUPQ" version="20.8.4" type="github">
  <diagram id="prtHgNgQTEPvFCAcTncT" name="Page-1">
    <mxGraphModel dx="2261" dy="756" grid="1" gridSize="10" guides="1" tooltips="1" connect="1" arrows="1" fold="1" page="1" pageScale="1" pageWidth="827" pageHeight="1169" math="0" shadow="0">
      <root>
        <mxCell id="0" />
        <mxCell id="1" parent="0" />
        <mxCell id="b6naCGsDVtKFtA5-_5uZ-1" value="long may the red star" style="swimlane;sketch=1;hachureGap=4;jiggle=2;curveFitting=1;fontFamily=Architects Daughter;fontSource=https%3A%2F%2Ffonts.googleapis.com%2Fcss%3Ffamily%3DArchitects%2BDaughter;fontSize=20;rounded=1;" vertex="1" parent="1">
          <mxGeometry x="-40" y="130" width="740" height="530" as="geometry" />
        </mxCell>
        <mxCell id="b6naCGsDVtKFtA5-_5uZ-2" style="edgeStyle=elbowEdgeStyle;rounded=1;sketch=1;hachureGap=4;jiggle=2;curveFitting=1;jumpStyle=arc;orthogonalLoop=1;jettySize=auto;elbow=vertical;html=1;startArrow=none;endArrow=classic;strokeColor=default;fontFamily=Architects Daughter;fontSource=https%3A%2F%2Ffonts.googleapis.com%2Fcss%3Ffamily%3DArchitects%2BDaughter;fontSize=16;fillColor=none;endFill=1;" edge="1" parent="b6naCGsDVtKFtA5-_5uZ-1" source="b6naCGsDVtKFtA5-_5uZ-3" target="b6naCGsDVtKFtA5-_5uZ-6">
          <mxGeometry relative="1" as="geometry" />
        </mxCell>
        <UserObject label="decision making department" treeRoot="1" id="b6naCGsDVtKFtA5-_5uZ-3">
          <mxCell style="whiteSpace=wrap;html=1;align=center;treeFolding=1;treeMoving=1;newEdgeStyle={&quot;edgeStyle&quot;:&quot;elbowEdgeStyle&quot;,&quot;startArrow&quot;:&quot;none&quot;,&quot;endArrow&quot;:&quot;none&quot;};sketch=1;hachureGap=4;jiggle=2;curveFitting=1;fontFamily=Architects Daughter;fontSource=https%3A%2F%2Ffonts.googleapis.com%2Fcss%3Ffamily%3DArchitects%2BDaughter;fontSize=20;rounded=1;" vertex="1" parent="b6naCGsDVtKFtA5-_5uZ-1">
            <mxGeometry x="230" y="80" width="280" height="60" as="geometry" />
          </mxCell>
        </UserObject>
        <mxCell id="b6naCGsDVtKFtA5-_5uZ-4" style="edgeStyle=elbowEdgeStyle;rounded=1;sketch=1;hachureGap=4;jiggle=2;curveFitting=1;jumpStyle=arc;orthogonalLoop=1;jettySize=auto;elbow=vertical;html=1;startArrow=none;endArrow=classic;entryX=1;entryY=0.5;entryDx=0;entryDy=0;strokeColor=default;fontFamily=Architects Daughter;fontSource=https%3A%2F%2Ffonts.googleapis.com%2Fcss%3Ffamily%3DArchitects%2BDaughter;fontSize=16;fillColor=none;exitX=1;exitY=0.5;exitDx=0;exitDy=0;endFill=1;" edge="1" parent="b6naCGsDVtKFtA5-_5uZ-1" source="b6naCGsDVtKFtA5-_5uZ-6" target="b6naCGsDVtKFtA5-_5uZ-3">
          <mxGeometry relative="1" as="geometry">
            <Array as="points">
              <mxPoint x="570" y="270" />
            </Array>
          </mxGeometry>
        </mxCell>
        <mxCell id="b6naCGsDVtKFtA5-_5uZ-5" style="edgeStyle=elbowEdgeStyle;rounded=1;sketch=1;hachureGap=4;jiggle=2;curveFitting=1;jumpStyle=arc;orthogonalLoop=1;jettySize=auto;elbow=vertical;html=1;startArrow=none;endArrow=classic;exitX=0.75;exitY=1;exitDx=0;exitDy=0;entryX=0.75;entryY=0;entryDx=0;entryDy=0;strokeColor=default;fontFamily=Architects Daughter;fontSource=https%3A%2F%2Ffonts.googleapis.com%2Fcss%3Ffamily%3DArchitects%2BDaughter;fontSize=16;fillColor=none;endFill=1;" edge="1" parent="b6naCGsDVtKFtA5-_5uZ-1" source="b6naCGsDVtKFtA5-_5uZ-6" target="b6naCGsDVtKFtA5-_5uZ-8">
          <mxGeometry relative="1" as="geometry" />
        </mxCell>
        <UserObject label="coordinate department" treeRoot="1" id="b6naCGsDVtKFtA5-_5uZ-6">
          <mxCell style="whiteSpace=wrap;html=1;align=center;treeFolding=1;treeMoving=1;newEdgeStyle={&quot;edgeStyle&quot;:&quot;elbowEdgeStyle&quot;,&quot;startArrow&quot;:&quot;none&quot;,&quot;endArrow&quot;:&quot;none&quot;};sketch=1;hachureGap=4;jiggle=2;curveFitting=1;fontFamily=Architects Daughter;fontSource=https%3A%2F%2Ffonts.googleapis.com%2Fcss%3Ffamily%3DArchitects%2BDaughter;fontSize=20;rounded=1;movable=1;resizable=1;rotatable=1;deletable=1;editable=1;connectable=1;" vertex="1" parent="b6naCGsDVtKFtA5-_5uZ-1">
            <mxGeometry x="255" y="190" width="230" height="60" as="geometry" />
          </mxCell>
        </UserObject>
        <mxCell id="b6naCGsDVtKFtA5-_5uZ-7" style="edgeStyle=elbowEdgeStyle;rounded=1;sketch=1;hachureGap=4;jiggle=2;curveFitting=1;jumpStyle=arc;orthogonalLoop=1;jettySize=auto;elbow=vertical;html=1;startArrow=none;endArrow=classic;exitX=0.25;exitY=0;exitDx=0;exitDy=0;entryX=0.25;entryY=1;entryDx=0;entryDy=0;strokeColor=default;fontFamily=Architects Daughter;fontSource=https%3A%2F%2Ffonts.googleapis.com%2Fcss%3Ffamily%3DArchitects%2BDaughter;fontSize=16;fillColor=none;endFill=1;" edge="1" parent="b6naCGsDVtKFtA5-_5uZ-1" source="b6naCGsDVtKFtA5-_5uZ-8" target="b6naCGsDVtKFtA5-_5uZ-6">
          <mxGeometry relative="1" as="geometry" />
        </mxCell>
        <UserObject label="execute department" treeRoot="1" id="b6naCGsDVtKFtA5-_5uZ-8">
          <mxCell style="whiteSpace=wrap;html=1;align=center;treeFolding=1;treeMoving=1;newEdgeStyle={&quot;edgeStyle&quot;:&quot;elbowEdgeStyle&quot;,&quot;startArrow&quot;:&quot;none&quot;,&quot;endArrow&quot;:&quot;none&quot;};sketch=1;hachureGap=4;jiggle=2;curveFitting=1;fontFamily=Architects Daughter;fontSource=https%3A%2F%2Ffonts.googleapis.com%2Fcss%3Ffamily%3DArchitects%2BDaughter;fontSize=20;rounded=1;movable=1;resizable=1;rotatable=1;deletable=1;editable=1;connectable=1;" vertex="1" parent="b6naCGsDVtKFtA5-_5uZ-1">
            <mxGeometry x="255" y="340" width="230" height="60" as="geometry" />
          </mxCell>
        </UserObject>
      </root>
    </mxGraphModel>
  </diagram>
</mxfile>
